<?xml version="1.0" encoding="iso-8859-1"?>
<!-- Generator: Adobe Illustrator 19.0.0, SVG Export Plug-In . SVG Version: 6.00 Build 0)  -->
<svg version="1.1" id="Layer_1" xmlns="http://www.w3.org/2000/svg" xmlns:xlink="http://www.w3.org/1999/xlink" x="0px" y="0px"
	 viewBox="0 0 502 502" style="enable-background:new 0 0 502 502;" xml:space="preserve">
<g>
	<g>
		<g>
			<path d="M430,0H72c-5.522,0-10,4.478-10,10v482c0,5.522,4.478,10,10,10h358c5.522,0,10-4.478,10-10V10C440,4.478,435.522,0,430,0
				z M420,482H82V20h338V482z"/>
			<path d="M112,193h278c5.522,0,10-4.478,10-10V50c0-5.522-4.478-10-10-10H112c-5.522,0-10,4.478-10,10v133
				C102,188.522,106.478,193,112,193z M122,60h258v113H122V60z"/>
			<path d="M204.126,219h-52.324C134.267,219,120,233.267,120,250.802c0,17.535,14.267,31.802,31.802,31.802h52.324
				c17.535,0,31.802-14.267,31.802-31.802C235.928,233.267,221.661,219,204.126,219z M204.126,262.604h-52.324
				c-6.508,0-11.802-5.294-11.802-11.802S145.294,239,151.802,239h52.324c6.508,0,11.802,5.294,11.802,11.802
				S210.634,262.604,204.126,262.604z"/>
			<path d="M350.198,219h-52.324c-17.535,0-31.802,14.267-31.802,31.802c0,17.535,14.267,31.802,31.802,31.802h52.324
				c17.535,0,31.802-14.267,31.802-31.802C382,233.267,367.733,219,350.198,219z M350.198,262.604h-52.324
				c-6.508,0-11.802-5.294-11.802-11.802S291.366,239,297.874,239h52.324c6.508,0,11.802,5.294,11.802,11.802
				S356.706,262.604,350.198,262.604z"/>
			<path d="M204.126,306.207h-52.324c-17.535,0-31.802,14.267-31.802,31.802c0,17.535,14.267,31.802,31.802,31.802h52.324
				c17.535,0,31.802-14.267,31.802-31.802C235.928,320.474,221.661,306.207,204.126,306.207z M204.126,349.811h-52.324
				c-6.508,0-11.802-5.294-11.802-11.802s5.294-11.802,11.802-11.802h52.324c6.508,0,11.802,5.294,11.802,11.802
				S210.634,349.811,204.126,349.811z"/>
			<path d="M350.198,306.207h-52.324c-17.535,0-31.802,14.267-31.802,31.802c0,17.535,14.267,31.802,31.802,31.802h52.324
				c17.535,0,31.802-14.267,31.802-31.802C382,320.474,367.733,306.207,350.198,306.207z M350.198,349.811h-52.324
				c-6.508,0-11.802-5.294-11.802-11.802s5.294-11.802,11.802-11.802h52.324c6.508,0,11.802,5.294,11.802,11.802
				S356.706,349.811,350.198,349.811z"/>
			<path d="M204.126,393.414h-52.324c-17.535,0-31.802,14.267-31.802,31.802c0,17.535,14.267,31.802,31.802,31.802h52.324
				c17.535,0,31.802-14.267,31.802-31.802C235.928,407.681,221.661,393.414,204.126,393.414z M204.126,437.018h-52.324
				c-6.508,0-11.802-5.294-11.802-11.802s5.294-11.802,11.802-11.802h52.324c6.508,0,11.802,5.294,11.802,11.802
				S210.634,437.018,204.126,437.018z"/>
			<path d="M350.198,393.414h-52.324c-17.535,0-31.802,14.267-31.802,31.802c0,17.535,14.267,31.802,31.802,31.802h52.324
				c17.535,0,31.802-14.267,31.802-31.802C382,407.681,367.733,393.414,350.198,393.414z M350.198,437.018h-52.324
				c-6.508,0-11.802-5.294-11.802-11.802s5.294-11.802,11.802-11.802h52.324c6.508,0,11.802,5.294,11.802,11.802
				S356.706,437.018,350.198,437.018z"/>
			<path d="M292,76H148c-5.522,0-10,4.478-10,10c0,5.522,4.478,10,10,10h144c5.522,0,10-4.478,10-10C302,80.478,297.522,76,292,76z"
				/>
			<path d="M354,76h-24c-5.522,0-10,4.478-10,10c0,5.522,4.478,10,10,10h24c5.522,0,10-4.478,10-10C364,80.478,359.522,76,354,76z"
				/>
		</g>
	</g>
</g>
<g>
</g>
<g>
</g>
<g>
</g>
<g>
</g>
<g>
</g>
<g>
</g>
<g>
</g>
<g>
</g>
<g>
</g>
<g>
</g>
<g>
</g>
<g>
</g>
<g>
</g>
<g>
</g>
<g>
</g>
</svg>
